<svg data-v-0dd9719b="" version="1.0" xmlns="http://www.w3.org/2000/svg" xmlns:xlink="http://www.w3.org/1999/xlink" width="100%" height="100%" viewBox="0 0 340.000000 250.000000" preserveAspectRatio="xMidYMid meet" color-interpolation-filters="sRGB" style="margin: auto;">   <g data-v-0dd9719b="" fill="#1684ac" class="pmspacesvg" transform="translate(73.4864501953125,73.23591995239258)"><g><g opacity="1" transform="matrix(1,0,0,1,0,0)"><g mask="url(#8f19794d-e564-4d2b-96d9-313a36414d88)"><rect data-gra="graph-name" x="0" y="0" rx="51.76408131917317" ry="51.76408131917317" width="103.52816263834634" height="103.52816263834634" fill="#333333"></rect></g> <g data-gra="path-name" fill-rule="" class="tp-name" fill="#1684ac" transform="translate(6.676408131917313,30.89346631368001)"><g transform="scale(1)"><g><path d="M20.07-31.3C20.02-32.29 19.75-33.27 19.14-34.38 16.34-39.38 10.56-38.88 5.61-38.06 4.79-37.9 3.96-37.84 3.19-37.62 4.4-36.02 10.01-37.18 11.82-37.18 12.1-37.18 12.43-37.23 12.6-36.91 13.53-36.02 11.82-31.18 11.66-30.09 11.11-27.23 10.56-24.36 10.01-21.5 9.35-18.09 8.69-14.63 8.03-11.22 7.65-9.07 7.7-3.79 5.83-2.37 4.62-2.64 3.63-3.79 3.35-5.06 3.08-6.71 3.79-7.97 4.57-9.24 4.73-9.57 5.17-9.85 4.9-10.34 4.67-10.78 4.24-10.84 3.79-10.72 1.54-10.01 0.55-9.63 0.11-7.09-0.28-4.95 0.33-2.58 1.81-0.94 4.01 1.54 8.03 2.15 10.89 0.49 13.09-0.82 14.46-3.14 15.18-5.61 15.84-8.03 16-10.56 16.28-13.09 16.72-16.66 17.43-20.24 18.43-23.71 19.2-26.34 20.3-28.77 20.07-31.3ZM56.98-26.51C56.93-26.51 56.93-26.51 56.93-26.51 56.98-26.51 57.7-30.14 57.7-30.52 57.7-31.9 57.53-33.38 56.82-34.59 55.72-36.52 53.52-37.56 51.48-38.5 50.44-38.94 47.41-41.09 46.81-39.6 46.59-39.16 45.98-39.05 46.37-38.61 46.42-36.8 48.02-36.13 49.23-35.97 49.28-34.48 49.39-33 49.5-31.52 48.84-27.28 47.91-23.05 46.64-18.92 45.48-14.96 43.95-11.11 42.68-7.15 42.68-9.52 42.68-11.82 42.68-14.19 42.68-15.18 43.17-16.23 43.23-17.27 43.28-18.37 43.23-19.52 42.95-20.63 42.46-22.99 41.58-24.04 39.11-22.82 36.8-21.67 35.26-19.69 33.5-17.98 33.16-17.32 32.95-17.16 32.23-17.05 32.73-17.11 33.72-21.73 33.88-22.27 34.38-24.14 34.76-26.02 34.98-27.89 35.42-30.96 35.64-33.77 34.93-36.69 34.81-37.02 35.09-37.29 34.81-37.73 33.11-40.15 31.13-42.13 27.67-41.3 27.45-41.2 27.28-41.09 27.12-41.03 25.36-40.7 24.92-34.7 24.59-33.16 23.87-29.98 23.21-26.84 22.5-23.65 20.85-19.58 20.41-14.79 20.3-10.39 20.13-5.45 26.29-5.67 29.43-7.65 32.29-9.4 34.21-12.48 36.47-14.96 36.74-15.29 36.74-15.84 37.18-16.11 37.4-15.56 37.07-15.18 36.96-14.74 36.58-12.15 36.47-9.46 36.69-6.88 36.85-5.28 37.29-3.63 38.39-2.48 39.93-0.88 42.13-0.66 44.17-0.22 45.21 0 46.15 0.11 47.19-0.17 47.8-0.33 49.61-1.04 49.78-1.76 49.83-1.93 49.83-2.09 49.89-2.2 51.31-5.55 55.77-19.14 56.98-26.51ZM79.97-33.27C79.81-34.21 79.48-35.09 78.81-35.75 77.44-37.18 75.02-37.13 73.31-36.13 71.45-35.04 69.96-33.05 68.75-31.35 69.47-33.16 70.4-36.13 68.2-37.34 67.87-38.66 66.94-39.77 65.73-40.37 64.46-40.92 62.26-41.14 61.49-39.77 61-38.94 60.89-37.73 60.72-36.74 60.39-35.09 60.06-33.38 59.79-31.68 59.29-28.32 58.91-24.91 58.63-21.5 58.3-17.43 58.19-13.37 58.25-9.29 58.3-7.21 58.41-5.12 58.52-2.97 58.58-2.25 58.47-1.26 58.8-0.6 59.35 0.33 60.56 1.16 61.66 1.16 62.65 1.21 63.64 0.71 64.19-0.11 66.22-1.1 66.88-1.38 66.94-3.58 66.99-5.12 66.94-6.71 66.88-8.2 66.77-11.11 66.99-14.24 67.54-17.05 67.59-17.49 67.65-18.37 67.98-18.7 68.53-19.25 70.07-19.09 70.9-19.3 73.26-19.96 75.52-21.34 77.11-23.27 79.26-25.74 80.36-29.15 80.08-32.4 80.08-32.67 80.03-33 79.97-33.27ZM74.75-34.43C75.19-34.76 75.63-35.26 76.23-34.92 76.73-34.7 76.73-34.1 76.78-33.6 76.89-31.35 76.18-29.21 75.24-27.17 74.42-25.46 73.43-23.16 71.72-22.22 71.12-21.89 70.46-21.73 69.85-21.39 69.85-21.34 69.8-21.29 69.8-21.29 69.74-21.34 69.63-21.45 69.58-21.56 69.14-21.67 70.73-27.89 70.95-28.55 71.72-30.8 72.71-33.05 74.75-34.43ZM107.09-7.87C107.03-8.09 106.75-8.63 106.65-8.63 106.43-8.58 106.21-8.53 106.04-8.42 105.44-8.14 104.89-7.81 104.34-7.37 101.59-5.28 99.06-2.92 96.69-0.39 95.98 0.33 95.26 1.21 95.43-0.06 95.87-3.79 96.64-7.48 96.91-11.28 97.02-12.27 97.02-13.37 96.36-14.13 95.81-14.69 94.98-14.85 94.22-14.79 93.45-14.74 92.73-14.41 92.07-14.08 91.85-13.86 91.36-13.8 91.58-14.63 91.47-17.49 91.96-20.35 92.18-23.16 92.51-26.4 92.73-31.41 89.76-33.55 88.99-34.1 88.33-34.81 87.28-34.87 86.52-34.87 85.86-35.31 85.14-34.76 84.43-34.16 84.37-33 84.31-32.17 84.04-29.59 83.77-27 83.44-24.42 82.72-19.25 81.95-14.08 81.02-8.96 80.85-7.48 80.74-5.94 80.58-4.46 80.47-3.08 79.86-1.65 81.18-0.66 81.84-0.11 82.72 0.06 83.6-0.06 84.59-0.11 85.75-0.33 86.41-1.1 86.95-1.81 87.18-2.64 87.62-3.41 89.1-6.16 90.64-8.91 92.13-11.61 92.29-11.88 92.45-12.21 92.68-12.38 94.16-13.53 93.45-10.18 93.34-9.63 93.12-8.53 92.78-7.37 92.62-6.27 92.29-4.46 92.07-2.58 91.85-0.77 91.74 0.55 91.58 1.87 92.73 2.69 93.83 3.46 95.26 3.41 96.42 2.69 97.68 1.93 98.45 0.82 99.33-0.33 100.38-1.76 101.64-3.02 103.02-4.07 103.68-4.62 104.45-5.33 105.16-5.83 105.88-6.27 106.31-6.93 106.98-7.48 107.03-7.59 107.09-7.75 107.09-7.87ZM120.94-0.82C121-1.16 120.84-1.32 120.5-1.38 119.41-1.76 118.53-1.16 117.64-0.71 117.53-0.66 117.42-0.66 117.31-0.66 117.26-1.43 116.98-2.04 116.93-2.75 116.93-3.63 117.15-4.57 117.26-5.39 117.42-6.88 117.59-8.36 117.81-9.85 117.92-11 118.03-11.88 116.71-12.32 116.16-12.48 115.56-12.6 115.06-12.21 114.95-12.15 114.78-12.15 114.67-12.1 114.29-11.82 114.13-11.44 113.91-11.11 112.03-8.42 109.94-5.94 107.36-3.9 107.25-3.85 107.14-3.79 107.09-3.79 107.03-4.29 107.19-4.73 107.47-5.17 107.69-5.45 107.91-5.78 108.02-6.11 109.17-8.53 110.77-9.57 112.69-11.28 114.18-12.6 119.24-17.05 117.75-19.3 117.2-20.24 116.33-20.9 115.61-21.67 114.73-22.77 113.52-22.66 112.36-22.82 112.25-22.82 112.03-22.77 111.92-22.66 111.27-22 110.22-21.61 109.45-21.01 108.52-20.24 107.8-19.3 106.86-18.59 105.33-17.43 104.56-16.34 103.51-14.74 102.36-13.09 101.42-11.33 100.81-9.4 100.21-7.32 99.88-4.84 101.03-2.86 102.63 0 105.27-0.33 108.08-0.22 109.67-0.22 110.55-1.59 111.76-2.31 112.36-2.69 112.75-2.92 113.19-2.58 113.25-2.48 113.25-2.37 113.3-2.31 113.41-2.09 113.36-1.81 113.52-1.59 113.96 1.04 116.27 2.15 119.24 1.32L119.19 1.32C120.01 1.16 120.34 0.49 120.72-0.17 120.89-0.33 121.11-0.49 120.94-0.82ZM136.9-19.25L136.84-19.2C136.73-19.09 136.4-19.03 136.24-18.98 135.96-18.86 135.69-18.75 135.41-18.64 134.86-18.43 134.31-18.21 133.81-17.93 133.21-17.6 132.66-17.21 132.17-16.77 131.89-16.55 131.67-16.28 131.4-16.06 131.18-15.84 130.96-15.79 130.74-15.56 130.41-15.35 129.8-17.43 129.75-17.6 129.42-18.59 129.19-19.64 128.81-20.57 128.48-21.5 127.99-22.39 127.27-22.99 126.28-23.82 125.24-23.65 124.08-23.93 124.03-23.87 123.92-23.87 123.81-23.93 123.37-24.25 122.38-23.43 122.21-23.1 121.77-22.44 121.83-21.45 121.77-20.68 121.55-18.64 121.39-16.61 121.28-14.57 121.17-12.27 121.11-10.01 121.11-7.75 121.11-6.6 121.11-5.5 121.11-4.34 121.11-3.79 120.89-1.93 121.28-1.54 122.32-0.49 123.86 0 125.29 0 126.01 0 126.56 0 126.89-0.6 127.27-1.16 126.94-1.87 127.66-2.37 129.14-3.46 129.8-5.22 130.46-6.93 131.23-8.91 132.22-10.72 133.05-12.71 133.76-14.3 135.14-15.46 136.46-16.55 137.44-17.32 138.22-18.37 138.11-19.2L138.16-19.14C137.78-19.52 137.34-19.36 136.9-19.25ZM165.17-1.54C164.67-1.65 164.06-1.59 163.63-1.87 163.19-2.2 163.02-2.81 163.08-3.3 163.13-3.85 163.41-4.34 163.63-4.84 164.45-6.66 166.1-14.3 161.92-13.09 161.48-12.98 161.04-12.81 160.66-12.54 159.89-11.88 158.95-11.33 158.18-10.67 157.58-10.12 156.81-9.73 156.15-9.29 155.76-9.02 155.49-9.13 155.49-9.63 155.43-10.72 155.71-11.77 155.71-12.87 155.71-13.59 155.49-14.36 154.99-14.85 154.28-15.56 153.12-15.73 152.19-15.46 151.47-15.29 149.71-13.86 149.22-14.24 148.5-14.85 149.49-16.11 149.55-16.77 149.71-18.43 149.22-20.13 148.34-21.5 147.18-23.32 143.61-26.34 141.74-23.93 140.47-22.16 140.69-19.47 140.36-17.43 140.36-13.53 138.49-9.57 138.49-5.61 138.49-4.57 139.15-3.63 140.09-3.25 140.75-3.02 141.41-3.02 142.06-2.97 142.89-2.97 143.77-2.92 144.54-3.14 145.92-3.46 147.02-4.4 147.84-5.5 148.61-6.6 149.05-7.81 149.66-9.02 149.88-9.52 151.64-11.33 151.58-11.61 151.64-10.01 151.36-8.42 152.9-7.37 153.84-6.71 155.1-6.6 156.25-6.82 158.18-7.15 159.45-8.03 160.71-9.35 160-7.81 159.39-5.55 159.56-3.79 159.72-0.88 161.81 0.28 164.45-0.06 164.89-0.33 165.39-0.99 165.5-1.43 165.39-1.49 165.28-1.54 165.17-1.54ZM186.29-0.82C186.34-1.16 186.18-1.32 185.85-1.38 184.75-1.76 183.87-1.16 182.99-0.71 182.88-0.66 182.77-0.66 182.66-0.66 182.6-1.43 182.33-2.04 182.27-2.75 182.27-3.63 182.49-4.57 182.6-5.39 182.77-6.88 182.93-8.36 183.15-9.85 183.26-11 183.37-11.88 182.05-12.32 181.5-12.48 180.9-12.6 180.4-12.21 180.29-12.15 180.13-12.15 180.02-12.1 179.63-11.82 179.47-11.44 179.25-11.11 177.38-8.42 175.29-5.94 172.7-3.9 172.59-3.85 172.48-3.79 172.43-3.79 172.37-4.29 172.54-4.73 172.81-5.17 173.03-5.45 173.25-5.78 173.36-6.11 174.52-8.53 176.11-9.57 178.04-11.28 179.52-12.6 184.58-17.05 183.1-19.3 182.55-20.24 181.67-20.9 180.95-21.67 180.07-22.77 178.86-22.66 177.71-22.82 177.6-22.82 177.38-22.77 177.27-22.66 176.61-22 175.56-21.61 174.79-21.01 173.86-20.24 173.14-19.3 172.21-18.59 170.67-17.43 169.9-16.34 168.85-14.74 167.7-13.09 166.76-11.33 166.16-9.4 165.55-7.32 165.22-4.84 166.38-2.86 167.97 0 170.61-0.33 173.42-0.22 175.01-0.22 175.89-1.59 177.1-2.31 177.71-2.69 178.09-2.92 178.53-2.58 178.59-2.48 178.59-2.37 178.64-2.31 178.75-2.09 178.7-1.81 178.86-1.59 179.3 1.04 181.61 2.15 184.58 1.32L184.53 1.32C185.35 1.16 185.68 0.49 186.07-0.17 186.23-0.33 186.45-0.49 186.29-0.82Z" transform="translate(0.005057737231254578, 41.4923210144043)"></path></g> <!----> <!----> <!----> <!----> <!----> <!----> <!----></g></g></g> <!----></g> <!----></g><mask id="8f19794d-e564-4d2b-96d9-313a36414d88"><g fill="#fff"><rect data-gra="graph-name" x="0" y="0" rx="51.76408131917317" ry="51.76408131917317" width="103.52816263834634" height="103.52816263834634"></rect></g><g data-gra="path-name" fill-rule="" class="tp-name" transform="translate(6.676408131917313,30.89346631368001)" stroke="#000" stroke-width="3"><g transform="scale(1)"><g><path d="M20.07-31.3C20.02-32.29 19.75-33.27 19.14-34.38 16.34-39.38 10.56-38.88 5.61-38.06 4.79-37.9 3.96-37.84 3.19-37.62 4.4-36.02 10.01-37.18 11.82-37.18 12.1-37.18 12.43-37.23 12.6-36.91 13.53-36.02 11.82-31.18 11.66-30.09 11.11-27.23 10.56-24.36 10.01-21.5 9.35-18.09 8.69-14.63 8.03-11.22 7.65-9.07 7.7-3.79 5.83-2.37 4.62-2.64 3.63-3.79 3.35-5.06 3.08-6.71 3.79-7.97 4.57-9.24 4.73-9.57 5.17-9.85 4.9-10.34 4.67-10.78 4.24-10.84 3.79-10.72 1.54-10.01 0.55-9.63 0.11-7.09-0.28-4.95 0.33-2.58 1.81-0.94 4.01 1.54 8.03 2.15 10.89 0.49 13.09-0.82 14.46-3.14 15.18-5.61 15.84-8.03 16-10.56 16.28-13.09 16.72-16.66 17.43-20.24 18.43-23.71 19.2-26.34 20.3-28.77 20.07-31.3ZM56.98-26.51C56.93-26.51 56.93-26.51 56.93-26.51 56.98-26.51 57.7-30.14 57.7-30.52 57.7-31.9 57.53-33.38 56.82-34.59 55.72-36.52 53.52-37.56 51.48-38.5 50.44-38.94 47.41-41.09 46.81-39.6 46.59-39.16 45.98-39.05 46.37-38.61 46.42-36.8 48.02-36.13 49.23-35.97 49.28-34.48 49.39-33 49.5-31.52 48.84-27.28 47.91-23.05 46.64-18.92 45.48-14.96 43.95-11.11 42.68-7.15 42.68-9.52 42.68-11.82 42.68-14.19 42.68-15.18 43.17-16.23 43.23-17.27 43.28-18.37 43.23-19.52 42.95-20.63 42.46-22.99 41.58-24.04 39.11-22.82 36.8-21.67 35.26-19.69 33.5-17.98 33.16-17.32 32.95-17.16 32.23-17.05 32.73-17.11 33.72-21.73 33.88-22.27 34.38-24.14 34.76-26.02 34.98-27.89 35.42-30.96 35.64-33.77 34.93-36.69 34.81-37.02 35.09-37.29 34.81-37.73 33.11-40.15 31.13-42.13 27.67-41.3 27.45-41.2 27.28-41.09 27.12-41.03 25.36-40.7 24.92-34.7 24.59-33.16 23.87-29.98 23.21-26.84 22.5-23.65 20.85-19.58 20.41-14.79 20.3-10.39 20.13-5.45 26.29-5.67 29.43-7.65 32.29-9.4 34.21-12.48 36.47-14.96 36.74-15.29 36.74-15.84 37.18-16.11 37.4-15.56 37.07-15.18 36.96-14.74 36.58-12.15 36.47-9.46 36.69-6.88 36.85-5.28 37.29-3.63 38.39-2.48 39.93-0.88 42.13-0.66 44.17-0.22 45.21 0 46.15 0.11 47.19-0.17 47.8-0.33 49.61-1.04 49.78-1.76 49.83-1.93 49.83-2.09 49.89-2.2 51.31-5.55 55.77-19.14 56.98-26.51ZM79.97-33.27C79.81-34.21 79.48-35.09 78.81-35.75 77.44-37.18 75.02-37.13 73.31-36.13 71.45-35.04 69.96-33.05 68.75-31.35 69.47-33.16 70.4-36.13 68.2-37.34 67.87-38.66 66.94-39.77 65.73-40.37 64.46-40.92 62.26-41.14 61.49-39.77 61-38.94 60.89-37.73 60.72-36.74 60.39-35.09 60.06-33.38 59.79-31.68 59.29-28.32 58.91-24.91 58.63-21.5 58.3-17.43 58.19-13.37 58.25-9.29 58.3-7.21 58.41-5.12 58.52-2.97 58.58-2.25 58.47-1.26 58.8-0.6 59.35 0.33 60.56 1.16 61.66 1.16 62.65 1.21 63.64 0.71 64.19-0.11 66.22-1.1 66.88-1.38 66.94-3.58 66.99-5.12 66.94-6.71 66.88-8.2 66.77-11.11 66.99-14.24 67.54-17.05 67.59-17.49 67.65-18.37 67.98-18.7 68.53-19.25 70.07-19.09 70.9-19.3 73.26-19.96 75.52-21.34 77.11-23.27 79.26-25.74 80.36-29.15 80.08-32.4 80.08-32.67 80.03-33 79.97-33.27ZM74.75-34.43C75.19-34.76 75.63-35.26 76.23-34.92 76.73-34.7 76.73-34.1 76.78-33.6 76.89-31.35 76.18-29.21 75.24-27.17 74.42-25.46 73.43-23.16 71.72-22.22 71.12-21.89 70.46-21.73 69.85-21.39 69.85-21.34 69.8-21.29 69.8-21.29 69.74-21.34 69.63-21.45 69.58-21.56 69.14-21.67 70.73-27.89 70.95-28.55 71.72-30.8 72.71-33.05 74.75-34.43ZM107.09-7.87C107.03-8.09 106.75-8.63 106.65-8.63 106.43-8.58 106.21-8.53 106.04-8.42 105.44-8.14 104.89-7.81 104.34-7.37 101.59-5.28 99.06-2.92 96.69-0.39 95.98 0.33 95.26 1.21 95.43-0.06 95.87-3.79 96.64-7.48 96.91-11.28 97.02-12.27 97.02-13.37 96.36-14.13 95.81-14.69 94.98-14.85 94.22-14.79 93.45-14.74 92.73-14.41 92.07-14.08 91.85-13.86 91.36-13.8 91.58-14.63 91.47-17.49 91.96-20.35 92.18-23.16 92.51-26.4 92.73-31.41 89.76-33.55 88.99-34.1 88.33-34.81 87.28-34.87 86.52-34.87 85.86-35.31 85.14-34.76 84.43-34.16 84.37-33 84.31-32.17 84.04-29.59 83.77-27 83.44-24.42 82.72-19.25 81.95-14.08 81.02-8.96 80.85-7.48 80.74-5.94 80.58-4.46 80.47-3.08 79.86-1.65 81.18-0.66 81.84-0.11 82.72 0.06 83.6-0.06 84.59-0.11 85.75-0.33 86.41-1.1 86.95-1.81 87.18-2.64 87.62-3.41 89.1-6.16 90.64-8.91 92.13-11.61 92.29-11.88 92.45-12.21 92.68-12.38 94.16-13.53 93.45-10.18 93.34-9.63 93.12-8.53 92.78-7.37 92.62-6.27 92.29-4.46 92.07-2.58 91.85-0.77 91.74 0.55 91.58 1.87 92.73 2.69 93.83 3.46 95.26 3.41 96.42 2.69 97.68 1.93 98.45 0.82 99.33-0.33 100.38-1.76 101.64-3.02 103.02-4.07 103.68-4.62 104.45-5.33 105.16-5.83 105.88-6.27 106.31-6.93 106.98-7.48 107.03-7.59 107.09-7.75 107.09-7.87ZM120.94-0.82C121-1.16 120.84-1.32 120.5-1.38 119.41-1.76 118.53-1.16 117.64-0.71 117.53-0.66 117.42-0.66 117.31-0.66 117.26-1.43 116.98-2.04 116.93-2.75 116.93-3.63 117.15-4.57 117.26-5.39 117.42-6.88 117.59-8.36 117.81-9.85 117.92-11 118.03-11.88 116.71-12.32 116.16-12.48 115.56-12.6 115.06-12.21 114.95-12.15 114.78-12.15 114.67-12.1 114.29-11.82 114.13-11.44 113.91-11.11 112.03-8.42 109.94-5.94 107.36-3.9 107.25-3.85 107.14-3.79 107.09-3.79 107.03-4.29 107.19-4.73 107.47-5.17 107.69-5.45 107.91-5.78 108.02-6.11 109.17-8.53 110.77-9.57 112.69-11.28 114.18-12.6 119.24-17.05 117.75-19.3 117.2-20.24 116.33-20.9 115.61-21.67 114.73-22.77 113.52-22.66 112.36-22.82 112.25-22.82 112.03-22.77 111.92-22.66 111.27-22 110.22-21.61 109.45-21.01 108.52-20.24 107.8-19.3 106.86-18.59 105.33-17.43 104.56-16.34 103.51-14.74 102.36-13.09 101.42-11.33 100.81-9.4 100.21-7.32 99.88-4.84 101.03-2.86 102.63 0 105.27-0.33 108.08-0.22 109.67-0.22 110.55-1.59 111.76-2.31 112.36-2.69 112.75-2.92 113.19-2.58 113.25-2.48 113.25-2.37 113.3-2.31 113.41-2.09 113.36-1.81 113.52-1.59 113.96 1.04 116.27 2.15 119.24 1.32L119.19 1.32C120.01 1.16 120.34 0.49 120.72-0.17 120.89-0.33 121.11-0.49 120.94-0.82ZM136.9-19.25L136.84-19.2C136.73-19.09 136.4-19.03 136.24-18.98 135.96-18.86 135.69-18.75 135.41-18.64 134.86-18.43 134.31-18.21 133.81-17.93 133.21-17.6 132.66-17.21 132.17-16.77 131.89-16.55 131.67-16.28 131.4-16.06 131.18-15.84 130.96-15.79 130.74-15.56 130.41-15.35 129.8-17.43 129.75-17.6 129.42-18.59 129.19-19.64 128.81-20.57 128.48-21.5 127.99-22.39 127.27-22.99 126.28-23.82 125.24-23.65 124.08-23.93 124.03-23.87 123.92-23.87 123.81-23.93 123.37-24.25 122.38-23.43 122.21-23.1 121.77-22.44 121.83-21.45 121.77-20.68 121.55-18.64 121.39-16.61 121.28-14.57 121.17-12.27 121.11-10.01 121.11-7.75 121.11-6.6 121.11-5.5 121.11-4.34 121.11-3.79 120.89-1.93 121.28-1.54 122.32-0.49 123.86 0 125.29 0 126.01 0 126.56 0 126.89-0.6 127.27-1.16 126.94-1.87 127.66-2.37 129.14-3.46 129.8-5.22 130.46-6.93 131.23-8.91 132.22-10.72 133.05-12.71 133.76-14.3 135.14-15.46 136.46-16.55 137.44-17.32 138.22-18.37 138.11-19.2L138.16-19.14C137.78-19.52 137.34-19.36 136.9-19.25ZM165.17-1.54C164.67-1.65 164.06-1.59 163.63-1.87 163.19-2.2 163.02-2.81 163.08-3.3 163.13-3.85 163.41-4.34 163.63-4.84 164.45-6.66 166.1-14.3 161.92-13.09 161.48-12.98 161.04-12.81 160.66-12.54 159.89-11.88 158.95-11.33 158.18-10.67 157.58-10.12 156.81-9.73 156.15-9.29 155.76-9.02 155.49-9.13 155.49-9.63 155.43-10.72 155.71-11.77 155.71-12.87 155.71-13.59 155.49-14.36 154.99-14.85 154.28-15.56 153.12-15.73 152.19-15.46 151.47-15.29 149.71-13.86 149.22-14.24 148.5-14.85 149.49-16.11 149.55-16.77 149.71-18.43 149.22-20.13 148.34-21.5 147.18-23.32 143.61-26.34 141.74-23.93 140.47-22.16 140.69-19.47 140.36-17.43 140.36-13.53 138.49-9.57 138.49-5.61 138.49-4.57 139.15-3.63 140.09-3.25 140.75-3.02 141.41-3.02 142.06-2.97 142.89-2.97 143.77-2.92 144.54-3.14 145.92-3.46 147.02-4.4 147.84-5.5 148.61-6.6 149.05-7.81 149.66-9.02 149.88-9.52 151.64-11.33 151.58-11.61 151.64-10.01 151.36-8.42 152.9-7.37 153.84-6.71 155.1-6.6 156.25-6.82 158.18-7.15 159.45-8.03 160.71-9.35 160-7.81 159.39-5.55 159.56-3.79 159.72-0.88 161.81 0.28 164.45-0.06 164.89-0.33 165.39-0.99 165.5-1.43 165.39-1.49 165.28-1.54 165.17-1.54ZM186.29-0.82C186.34-1.16 186.18-1.32 185.85-1.38 184.75-1.76 183.87-1.16 182.99-0.71 182.88-0.66 182.77-0.66 182.66-0.66 182.6-1.43 182.33-2.04 182.27-2.75 182.27-3.63 182.49-4.57 182.6-5.39 182.77-6.88 182.93-8.36 183.15-9.85 183.26-11 183.37-11.88 182.05-12.32 181.5-12.48 180.9-12.6 180.4-12.21 180.29-12.15 180.13-12.15 180.02-12.1 179.63-11.82 179.47-11.44 179.25-11.11 177.38-8.42 175.29-5.94 172.7-3.9 172.59-3.85 172.48-3.79 172.43-3.79 172.37-4.29 172.54-4.73 172.81-5.17 173.03-5.45 173.25-5.78 173.36-6.11 174.52-8.53 176.11-9.57 178.04-11.28 179.52-12.6 184.58-17.05 183.1-19.3 182.55-20.24 181.67-20.9 180.95-21.67 180.07-22.77 178.86-22.66 177.71-22.82 177.6-22.82 177.38-22.77 177.27-22.66 176.61-22 175.56-21.61 174.79-21.01 173.86-20.24 173.14-19.3 172.21-18.59 170.67-17.43 169.9-16.34 168.85-14.74 167.7-13.09 166.76-11.33 166.16-9.4 165.55-7.32 165.22-4.84 166.38-2.86 167.97 0 170.61-0.33 173.42-0.22 175.01-0.22 175.89-1.59 177.1-2.31 177.71-2.69 178.09-2.92 178.53-2.58 178.59-2.48 178.59-2.37 178.64-2.31 178.75-2.09 178.7-1.81 178.86-1.59 179.3 1.04 181.61 2.15 184.58 1.32L184.53 1.32C185.35 1.16 185.68 0.49 186.07-0.17 186.23-0.33 186.45-0.49 186.29-0.82Z" transform="translate(0.005057737231254578, 41.4923210144043)"></path></g> <!----> <!----> <!----> <!----> <!----> <!----> <!----></g></g></mask><defs v-gra="od"></defs></svg>